<?xml version="1.0" encoding="UTF-8" standalone="no"?>
<!-- Created with Inkscape (http://www.inkscape.org/) -->

<svg
   xmlns:dc="http://purl.org/dc/elements/1.1/"
   xmlns:cc="http://creativecommons.org/ns#"
   xmlns:rdf="http://www.w3.org/1999/02/22-rdf-syntax-ns#"
   xmlns:svg="http://www.w3.org/2000/svg"
   xmlns="http://www.w3.org/2000/svg"
   xmlns:sodipodi="http://sodipodi.sourceforge.net/DTD/sodipodi-0.dtd"
   xmlns:inkscape="http://www.inkscape.org/namespaces/inkscape"
   width="42mm"
   height="42mm"
   viewBox="0 0 42 42"
   version="1.1"
   id="svg8"
   sodipodi:docname="inspectify_symbol.svg"
   inkscape:version="0.92.2 (5c3e80d, 2017-08-06)">
  <defs
     id="defs2" />
  <sodipodi:namedview
     id="base"
     pagecolor="#ffffff"
     bordercolor="#666666"
     borderopacity="1.0"
     inkscape:pageopacity="0.0"
     inkscape:pageshadow="2"
     inkscape:zoom="0.49497475"
     inkscape:cx="90.885762"
     inkscape:cy="-172.94551"
     inkscape:document-units="mm"
     inkscape:current-layer="layer1"
     showgrid="false"
     inkscape:window-width="1920"
     inkscape:window-height="986"
     inkscape:window-x="-11"
     inkscape:window-y="-11"
     inkscape:window-maximized="1"
     fit-margin-top="0"
     fit-margin-left="0"
     fit-margin-right="0"
     fit-margin-bottom="0" />
  <metadata
     id="metadata5">
    <rdf:RDF>
      <cc:Work
         rdf:about="">
        <dc:format>image/svg+xml</dc:format>
        <dc:type
           rdf:resource="http://purl.org/dc/dcmitype/StillImage" />
        <dc:title></dc:title>
      </cc:Work>
    </rdf:RDF>
  </metadata>
  <g
     inkscape:label="Layer 1"
     inkscape:groupmode="layer"
     id="layer1"
     transform="translate(363.7427,-1553.1812)">
    <path
       inkscape:connector-curvature="0"
       id="path1591"
       d="m -356.72961,1594.565 c -0.91897,-0.9725 -1.48806,-2.0531 -1.9138,-3.6345 -0.27791,-1.0322 -0.45632,-2.7979 -0.31912,-3.1583 l 0.096,-0.252 0.95294,0.5103 c 0.52413,0.2808 1.16444,0.5666 1.42291,0.6352 0.63129,0.1678 2.14986,0.1618 2.81464,-0.011 1.91215,-0.497 3.28378,-2.0742 3.57268,-4.1077 0.0748,-0.5264 0.0581,-0.7762 -0.10513,-1.5758 -0.11453,-0.5611 -0.1607,-0.9828 -0.11273,-1.0295 0.0446,-0.043 0.44722,-0.1195 0.89454,-0.1687 1.00846,-0.1112 1.68878,-0.3596 2.38403,-0.8706 1.21449,-0.8925 1.90599,-2.2819 1.90599,-3.8294 0,-1.918 -0.82974,-3.3242 -2.49223,-4.2234 -1.16152,-0.6283 -1.11673,-0.5563 -0.72414,-1.165 0.63056,-0.9779 0.87752,-1.5885 0.92943,-2.2973 0.07,-0.9555 -0.0989,-1.9901 -0.43758,-2.6813 -0.38292,-0.782 -1.48826,-1.9065 -2.1604,-2.1982 -1.3788,-0.5981 -2.62978,-0.6979 -3.83552,-0.3059 -1.21647,0.3954 -1.38139,0.4262 -1.5241,0.2838 -0.0699,-0.07 -0.23236,-0.442 -0.36122,-0.827 -0.27766,-0.8299 -0.43459,-1.0832 -1.06704,-1.7217 -1.53857,-1.5534 -3.72273,-1.9409 -5.93798,-1.053 -0.54047,0.2165 -0.78418,0.276 -0.8295,0.2029 -0.0352,-0.057 -0.0915,-0.395 -0.12495,-0.7512 -0.0829,-0.8829 -0.0149,-6.9472 0.0789,-7.0409 0.0952,-0.095 33.99411,-0.1594 38.51575,-0.074 l 3.36458,0.065 v 4.6897 4.6897 l -0.29355,-0.059 c -0.16145,-0.032 -1.0455,-0.4277 -1.96455,-0.8789 -0.91904,-0.4514 -1.81327,-0.8393 -1.98714,-0.8622 -0.25868,-0.034 -0.56237,0.08 -1.67101,0.6294 -2.01449,0.9979 -16.08635,8.4758 -16.86803,8.9638 -0.30525,0.1907 -0.33872,0.2496 -0.33872,0.5956 0,0.4779 0.42544,1.0565 0.77678,1.0565 0.12191,0 1.1656,-0.4706 2.31926,-1.0458 l 2.0976,-1.0456 0.0701,0.3469 c 0.0386,0.1907 0.095,5.8138 0.12536,12.4958 0.0469,10.3191 0.0364,12.1548 -0.0701,12.1885 -0.069,0.023 -3.83211,0.061 -8.36256,0.085 l -8.23719,0.046 z m -6.95639,-1.7721 c -0.0316,-0.2301 -0.0571,-1.2952 -0.0567,-2.367 l 8.1e-4,-1.9487 0.71825,-0.5861 c 0.80101,-0.6537 0.95175,-0.7215 1.02041,-0.4594 0.11932,0.4555 -0.266,2.8161 -0.66658,4.0835 -0.2645,0.8369 -0.70961,1.696 -0.8786,1.696 -0.044,0 -0.10588,-0.1881 -0.13747,-0.4183 z"
       style="fill:#ffffff;stroke-width:0.09024857" />
  </g>
</svg>
