<?xml version="1.0" encoding="UTF-8" standalone="no"?>
<svg
   xmlns:dc="http://purl.org/dc/elements/1.1/"
   xmlns:cc="http://creativecommons.org/ns#"
   xmlns:rdf="http://www.w3.org/1999/02/22-rdf-syntax-ns#"
   xmlns:svg="http://www.w3.org/2000/svg"
   xmlns="http://www.w3.org/2000/svg"
   xmlns:sodipodi="http://sodipodi.sourceforge.net/DTD/sodipodi-0.dtd"
   xmlns:inkscape="http://www.inkscape.org/namespaces/inkscape"
   version="1.1"
   width="24"
   height="24"
   viewBox="0 0 24 24"
   id="svg4"
   sodipodi:docname="key-modern.svg"
   inkscape:version="0.92.2 (5c3e80d, 2017-08-06)">
  <metadata
     id="metadata10">
    <rdf:RDF>
      <cc:Work
         rdf:about="">
        <dc:format>image/svg+xml</dc:format>
        <dc:type
           rdf:resource="http://purl.org/dc/dcmitype/StillImage" />
        <dc:title />
      </cc:Work>
    </rdf:RDF>
  </metadata>
  <defs
     id="defs8" />
  <sodipodi:namedview
     pagecolor="#ffffff"
     bordercolor="#666666"
     borderopacity="1"
     objecttolerance="10"
     gridtolerance="10"
     guidetolerance="10"
     inkscape:pageopacity="0"
     inkscape:pageshadow="2"
     inkscape:window-width="1920"
     inkscape:window-height="986"
     id="namedview6"
     showgrid="false"
     inkscape:zoom="6.9532167"
     inkscape:cx="-2.0240818"
     inkscape:cy="12.524044"
     inkscape:window-x="-11"
     inkscape:window-y="-11"
     inkscape:window-maximized="1"
     inkscape:current-layer="svg4" />
  <path
     style="opacity:1;fill:#dddddd;stroke-width:0.05283219;fill-opacity:1"
     d="m 12.941213,0.62016811 c -0.0721,7.944e-5 -0.12738,6.3135e-4 -0.19322,9.9295e-4 V 0.6205595 H 11.23922 C 10.003995,0.6160085 7.6276488,0.64592925 7.5341556,0.6794908 7.2546092,0.77972366 7.1565641,0.99207908 6.8843382,2.0865638 6.6160477,3.1652234 5.8376399,6.462616 5.751012,6.8872579 L 5.705601,7.10975 6.0580387,7.7706622 c 0.1938312,0.363467 0.5483896,1.000316 0.7879773,1.4152993 0.5528662,0.9576055 0.5006786,0.9294235 1.7446231,0.9441115 0.5116134,0.0057 0.9569428,0.02207 0.989619,0.03572 0.034414,0.01433 0.065452,0.328244 0.073759,0.74607 0.016466,0.829101 0.065692,0.934762 0.4440659,0.952942 0.117745,0.0057 0.221284,0.01331 0.230096,0.01696 0.02955,0.01229 0.03476,1.090673 0.02671,5.489548 l -0.0079,4.375426 0.49789,0.500972 c 0.273826,0.275544 0.646494,0.643039 0.828142,0.816631 l 0.33025,0.315558 0.21931,-0.209545 c 0.120566,-0.115285 0.49267,-0.480492 0.826909,-0.811603 l 0.6077,-0.602058 -0.0041,-0.591773 c -0.0023,-0.325512 -0.0039,-0.619885 -0.0036,-0.65413 3.61e-4,-0.03425 -0.124371,-0.06985 -0.277143,-0.0793 -0.152769,-0.0091 -0.335181,-0.0479 -0.405441,-0.08533 -0.113591,-0.06064 -0.130588,-0.09659 -0.153055,-0.324706 -0.04459,-0.452686 -0.0075,-1.116329 0.07098,-1.270148 0.07318,-0.143444 0.08682,-0.149759 0.347917,-0.162922 0.451608,-0.02276 0.443208,-0.0091 0.42239,-0.670048 l -0.01873,-0.596678 -0.270363,-0.02105 c -0.148732,-0.01149 -0.332431,-0.05484 -0.408113,-0.09614 l -0.137545,-0.07498 -0.01242,-0.646736 c -0.0069,-0.35565 0.01643,-0.722166 0.05177,-0.814481 l 0.0643,-0.167848 0.344837,-0.03015 c 0.189651,-0.01662 0.355286,-0.05131 0.368153,-0.07703 0.01287,-0.02571 0.02545,-0.814516 0.02794,-1.75294 0.0025,-0.938424 0.01143,-1.720969 0.01993,-1.738968 0.0085,-0.01798 0.09608,-0.03356 0.194554,-0.03447 0.419866,-0.0034 0.476592,-0.120121 0.500254,-1.024754 0.0097,-0.368758 0.0218,-0.671857 0.02702,-0.673848 0.0052,-0.0023 0.448135,-0.0091 0.984278,-0.01672 0.53614,-0.0069 1.046372,-0.03902 1.13384,-0.07043 0.192254,-0.06906 0.307827,-0.2407966 1.074324,-1.595978 C 18.396336,7.0757189 18.355866,7.2052596 18.212311,6.5262357 17.944413,5.2590687 17.075825,1.6839816 16.934972,1.2687376 L 16.784587,0.82559608 16.61376,0.75949075 c -0.04405,-0.0349268 -0.09241,-0.0597339 -0.14802,-0.0797501 -0.01559,-0.005709 -0.0945,-0.0113775 -0.221057,-0.0163836 -1.03e-4,0 -3.02e-4,1.159e-5 -4.22e-4,0 -0.16424,-0.0229784 -0.33858,-0.0290106 -0.458538,-0.0134213 C 15.025011,0.6319552 13.78651,0.61944409 12.94126,0.62035429 Z M 11.355192,2.0860044 h 1.289566 c 0.239861,0.019793 0.630216,0.036292 1.071489,0.043235 0.833972,0.013082 1.283661,0.043805 1.356438,0.09261 0.118109,0.079187 0.16182,0.5098575 0.145145,1.4302946 -9.93e-4,0.055067 -0.0023,0.1063767 -0.0041,0.1541838 l 0.05013,-0.027761 C 15.24129,4.2576372 15.1905,4.3851074 15.04342,4.4379313 14.846117,4.5088113 9.3409075,4.5030103 9.0278401,4.4310613 8.8434474,4.3889706 8.7924043,4.2273092 8.7819866,3.6516127 8.7653217,2.7311756 8.8090278,2.3005261 8.927132,2.221318 8.999915,2.172506 9.4497009,2.141791 10.283674,2.128708 10.724946,2.121838 11.115303,2.105275 11.355162,2.085474 Z"
     id="path5069"
     inkscape:connector-curvature="0" />
</svg>
