<?xml version="1.0" encoding="UTF-8" standalone="no"?>
<svg
   xmlns:dc="http://purl.org/dc/elements/1.1/"
   xmlns:cc="http://creativecommons.org/ns#"
   xmlns:rdf="http://www.w3.org/1999/02/22-rdf-syntax-ns#"
   xmlns:svg="http://www.w3.org/2000/svg"
   xmlns="http://www.w3.org/2000/svg"
   xmlns:sodipodi="http://sodipodi.sourceforge.net/DTD/sodipodi-0.dtd"
   xmlns:inkscape="http://www.inkscape.org/namespaces/inkscape"
   version="1.1"
   width="24"
   height="24"
   viewBox="0 0 24 24"
   id="svg4"
   sodipodi:docname="keys-modern.svg"
   inkscape:version="0.92.2 (5c3e80d, 2017-08-06)">
  <metadata
     id="metadata10">
    <rdf:RDF>
      <cc:Work
         rdf:about="">
        <dc:format>image/svg+xml</dc:format>
        <dc:type
           rdf:resource="http://purl.org/dc/dcmitype/StillImage" />
        <dc:title></dc:title>
      </cc:Work>
    </rdf:RDF>
  </metadata>
  <defs
     id="defs8" />
  <sodipodi:namedview
     pagecolor="#ffffff"
     bordercolor="#666666"
     borderopacity="1"
     objecttolerance="10"
     gridtolerance="10"
     guidetolerance="10"
     inkscape:pageopacity="0"
     inkscape:pageshadow="2"
     inkscape:window-width="1920"
     inkscape:window-height="986"
     id="namedview6"
     showgrid="false"
     inkscape:zoom="6.9532167"
     inkscape:cx="25.948583"
     inkscape:cy="12.524044"
     inkscape:window-x="-11"
     inkscape:window-y="-11"
     inkscape:window-maximized="1"
     inkscape:current-layer="svg4" />
  <path
     style="fill:#dddddd;stroke-width:0.03053702;fill-opacity:1"
     d="M 10.346542,22.389895 9.9590724,21.564398 10.199013,20.901219 c 0.131963,-0.364751 0.597123,-1.652581 1.033676,-2.861848 0.436556,-1.209267 0.918728,-2.544044 1.071502,-2.966162 0.152768,-0.422124 0.27776,-0.781753 0.27776,-0.799172 0,-0.01744 -0.03835,-0.0401 -0.08521,-0.05041 -0.151952,-0.03334 -0.273131,-0.128607 -0.311471,-0.244768 -0.03406,-0.10324 -0.0237,-0.14653 0.153986,-0.644288 0.104774,-0.293489 0.185068,-0.538015 0.178421,-0.543391 -0.0066,-0.0055 -0.33487,-0.12532 -0.729405,-0.266553 -0.779416,-0.279 -0.879829,-0.337224 -0.958757,-0.555931 -0.02545,-0.07059 -0.130401,-0.639039 -0.233178,-1.263197 -0.147569,-0.8962117 -0.180791,-1.1568358 -0.157973,-1.2394613 0.02468,-0.089435 2.518423,-3.9027548 2.658771,-4.0656965 0.07256,-0.084232 0.276899,-0.169832 0.407282,-0.1706048 0.07142,-4.493e-4 0.697405,0.2098116 1.694804,0.5691922 0.869869,0.3134283 1.586853,0.5740804 1.593314,0.5792248 0.06912,0.055092 -0.500344,0.8680859 -0.672642,0.9602998 -0.04526,0.024189 -0.248745,-0.038343 -0.947285,-0.2911158 -0.489298,-0.1770773 -0.936324,-0.3219576 -0.99338,-0.3219576 -0.06687,0 -0.128138,0.024405 -0.172403,0.068714 -0.04163,0.041631 -0.162129,0.3281937 -0.305934,0.727429 -0.251653,0.698643 -0.26045,0.7575464 -0.131257,0.8789237 0.07951,0.074699 4.348403,1.6229405 4.474871,1.6229405 0.156294,0 0.221429,-0.1045707 0.437542,-0.7023525 0.179157,-0.4955681 0.232722,-0.6075659 0.43627,-0.912119 0.211791,-0.3168725 0.534467,-0.9255678 0.534467,-1.0082047 0,-0.053097 0.0701,-0.041244 0.341062,0.057635 0.375277,0.1369602 0.523677,0.3065119 0.519828,0.5939136 -0.0044,0.3228014 -0.497516,4.6978826 -0.538515,4.7771746 -0.02293,0.04431 -0.11512,0.149301 -0.204918,0.233347 -0.357513,0.334607 -1.621691,1.407155 -1.720546,1.459728 -0.18621,0.09905 -0.325226,0.07422 -1.05837,-0.188951 -0.3753,-0.134717 -0.700268,-0.249233 -0.722176,-0.254475 -0.02649,-0.0063 -0.100688,0.159332 -0.221418,0.494327 -0.241536,0.670149 -0.326404,0.749824 -0.662162,0.621596 -0.07232,-0.02765 -0.135452,-0.04481 -0.140301,-0.03817 -0.005,0.0066 -0.10231,0.273135 -0.216602,0.592245 -0.447913,1.250697 -0.726583,2.016031 -0.738623,2.028581 -0.0069,0.0073 -0.09831,-0.01696 -0.203053,-0.05375 -0.292608,-0.102766 -0.421252,-0.08829 -0.495749,0.05577 -0.07974,0.154194 -0.351242,0.928328 -0.351242,1.001492 0,0.10575 0.145258,0.233298 0.336355,0.295361 0.09213,0.0299 0.178488,0.06437 0.191898,0.07656 0.02337,0.02123 -0.265199,0.875773 -0.312744,0.926089 -0.01267,0.01343 -0.116066,-0.01061 -0.22978,-0.05343 -0.113721,-0.04278 -0.232389,-0.07782 -0.263713,-0.07782 -0.129143,0 -0.229629,0.157141 -0.390541,0.610743 -0.08639,0.24353 -0.156832,0.485052 -0.15653,0.536708 0.0011,0.124575 0.09114,0.204532 0.336463,0.297536 0.126013,0.04777 0.195157,0.0904 0.189347,0.11673 -0.005,0.02281 -0.08057,0.243199 -0.167878,0.489744 l -0.158734,0.448263 -0.815536,0.383866 c -0.448544,0.211134 -0.826575,0.383872 -0.840062,0.383872 -0.0135,0 -0.198891,-0.371478 -0.412005,-0.825499 z M 4.0212001,19.833421 C 4.0135621,19.820804 3.929601,19.42288 3.8347381,18.94911 3.673758,18.145132 3.6653555,18.082012 3.7085842,18.002456 3.734032,17.955563 4.6064795,16.639249 5.6473026,15.077273 l 1.8924122,-2.83994 -0.079452,-0.06108 C 7.2583667,12.021054 7.2338148,11.990079 7.2181445,11.870838 7.2032821,11.757704 7.2214608,11.718771 7.4683686,11.340685 L 7.7346324,10.932631 7.6673556,10.821555 C 7.6303345,10.760461 7.5391387,10.583431 7.464653,10.428145 6.7685431,8.9768638 6.8742058,7.2752917 7.7433665,5.9399355 8.3256911,5.045275 9.1142768,4.4249124 10.117638,4.0721686 c 0.84491,-0.2970453 1.899399,-0.3263624 2.762487,-0.076811 0.263911,0.076307 0.911659,0.3351595 0.935617,0.3739009 0.0068,0.011025 -0.102879,0.015195 -0.24379,0.00932 C 13.157522,4.3611894 12.79212,4.5018293 12.504525,4.7894127 12.373912,4.9200318 9.8426047,8.7183246 9.7055902,8.9892934 9.6526532,9.09393 9.6050883,9.2555293 9.5841811,9.4015441 c -0.033339,0.2327106 -0.027977,0.2784718 0.1721932,1.4769009 0.1136215,0.680209 0.2333085,1.308546 0.2659627,1.3963 0.084,0.22569 0.295432,0.499128 0.498254,0.64437 0.09536,0.06827 0.189347,0.129544 0.208874,0.136153 0.05551,0.01876 -0.424635,0.720701 -0.516997,0.755821 -0.127876,0.0486 -0.2361125,0.03378 -0.3579225,-0.04898 -0.063475,-0.04311 -0.1281565,-0.07404 -0.1437556,-0.06871 -0.015579,0.0055 -0.1351878,0.167242 -0.2657701,0.359787 l -0.2374213,0.35009 -0.6548586,0.131721 c -0.3601663,0.07245 -0.658964,0.13584 -0.6639943,0.140871 -0.00494,0.005 0.017549,0.131322 0.050185,0.28064 0.032636,0.149316 0.053753,0.277045 0.04695,0.283841 -0.00683,0.0068 -0.1303665,0.03647 -0.2746161,0.06594 -0.1442378,0.02945 -0.2684626,0.0598 -0.2760376,0.06737 -0.00763,0.0075 0.045414,0.308502 0.1178126,0.668719 l 0.1316002,0.654938 -0.2228814,0.34332 c -0.1322975,0.203806 -0.2509924,0.353497 -0.2920592,0.368346 -0.038064,0.01379 -0.3302659,0.07701 -0.6493767,0.140573 -0.3191118,0.06356 -0.5914517,0.125811 -0.6051865,0.138335 -0.013776,0.0125 0.033517,0.317478 0.1050277,0.677666 l 0.1300172,0.654896 -0.1665029,0.24234 -0.1665136,0.24235 -0.8393603,0.173961 c -0.88126,0.182645 -0.9341178,0.19117 -0.9566299,0.154312 z M 16.276933,8.8921324 c -0.461877,-0.1670231 -0.860377,-0.3116068 -0.885576,-0.321299 -0.02738,-0.010532 0.03877,-0.047283 0.164604,-0.091419 0.994937,-0.3489816 1.775993,-1.2073915 2.054405,-2.2578797 0.07145,-0.2696092 0.08092,-0.3625796 0.08092,-0.7939623 0,-0.4322653 -0.0093,-0.5237934 -0.08129,-0.7939614 C 17.342434,3.6285222 16.62405,2.807305 15.674496,2.421048 14.551808,1.9643631 13.191154,2.201671 12.322389,3.0056805 l -0.183226,0.1695686 -0.626016,0.017108 c -0.555058,0.015196 -0.897479,0.054409 -1.136035,0.1301101 -0.05672,0.017989 -0.05651,0.013991 0.0057,-0.1080099 0.244325,-0.4789157 0.726733,-1.0512674 1.211857,-1.4377994 1.384519,-1.10315027 3.351772,-1.30595735 4.94178,-0.509461 1.775093,0.8892079 2.795814,2.8076339 2.535289,4.7650311 -0.128409,0.9646865 -0.541834,1.8408904 -1.211559,2.5677217 -0.224222,0.243341 -0.646384,0.5999738 -0.707168,0.5973958 -0.02002,-0.00108 -0.41426,-0.1381995 -0.876129,-0.3052225 z"
     id="path1200"
     inkscape:connector-curvature="0" />
</svg>
