<?xml version="1.0" encoding="UTF-8" standalone="no"?>
<svg
   xmlns:dc="http://purl.org/dc/elements/1.1/"
   xmlns:cc="http://creativecommons.org/ns#"
   xmlns:rdf="http://www.w3.org/1999/02/22-rdf-syntax-ns#"
   xmlns:svg="http://www.w3.org/2000/svg"
   xmlns="http://www.w3.org/2000/svg"
   xmlns:sodipodi="http://sodipodi.sourceforge.net/DTD/sodipodi-0.dtd"
   xmlns:inkscape="http://www.inkscape.org/namespaces/inkscape"
   version="1.1"
   width="24"
   height="24"
   viewBox="0 0 24 24"
   id="svg4"
   sodipodi:docname="network-folder-open.svg"
   inkscape:version="0.92.2 (5c3e80d, 2017-08-06)">
  <metadata
     id="metadata10">
    <rdf:RDF>
      <cc:Work
         rdf:about="">
        <dc:format>image/svg+xml</dc:format>
        <dc:type
           rdf:resource="http://purl.org/dc/dcmitype/StillImage" />
        <dc:title />
      </cc:Work>
    </rdf:RDF>
  </metadata>
  <defs
     id="defs8">
    <pattern
       y="0"
       x="0"
       height="6"
       width="6"
       patternUnits="userSpaceOnUse"
       id="EMFhbasepattern" />
  </defs>
  <sodipodi:namedview
     pagecolor="#ffffff"
     bordercolor="#666666"
     borderopacity="1"
     objecttolerance="10"
     gridtolerance="10"
     guidetolerance="10"
     inkscape:pageopacity="0"
     inkscape:pageshadow="2"
     inkscape:window-width="1920"
     inkscape:window-height="986"
     id="namedview6"
     showgrid="false"
     inkscape:zoom="9.8333333"
     inkscape:cx="-27.559322"
     inkscape:cy="12"
     inkscape:window-x="-11"
     inkscape:window-y="-11"
     inkscape:window-maximized="1"
     inkscape:current-layer="svg4" />
  <path
     d="m 4.7832031,2.0449219 c -0.991856,-10e-8 -1.7695312,0.7796282 -1.7695312,1.7714843 V 14.443359 c 0,0.991856 0.7776752,1.771485 1.7695312,1.771485 H 11 v 1.740234 h -1 a 1,1 0 0 0 -1,1 H 2 v 2 h 7 a 1,1 0 0 0 1,1 h 4 a 1,1 0 0 0 1,-1 h 7 v -2 h -7 a 1,1 0 0 0 -1,-1 h -1 v -1.740234 h 5.103516 c 0.779314,0 1.486677,-0.568342 1.699218,-1.347657 L 21.787109,7.3574219 H 6.6972656 L 4.7832031,14.443359 V 5.5878906 H 19.875 c 0,-0.9918561 -0.850476,-1.7714844 -1.771484,-1.7714844 H 11.869141 L 10.097656,2.0449219 Z"
     id="path2"
     style="fill:#dddddd;fill-opacity:1"
     inkscape:connector-curvature="0" />
</svg>
