<?xml version="1.0" encoding="UTF-8" standalone="no"?>
<svg
   xmlns:dc="http://purl.org/dc/elements/1.1/"
   xmlns:cc="http://creativecommons.org/ns#"
   xmlns:rdf="http://www.w3.org/1999/02/22-rdf-syntax-ns#"
   xmlns:svg="http://www.w3.org/2000/svg"
   xmlns="http://www.w3.org/2000/svg"
   xmlns:sodipodi="http://sodipodi.sourceforge.net/DTD/sodipodi-0.dtd"
   xmlns:inkscape="http://www.inkscape.org/namespaces/inkscape"
   version="1.1"
   width="24"
   height="24"
   viewBox="0 0 24 24"
   id="svg4"
   sodipodi:docname="house-inspect.svg"
   inkscape:version="0.92.2 (5c3e80d, 2017-08-06)">
  <metadata
     id="metadata10">
    <rdf:RDF>
      <cc:Work
         rdf:about="">
        <dc:format>image/svg+xml</dc:format>
        <dc:type
           rdf:resource="http://purl.org/dc/dcmitype/StillImage" />
        <dc:title />
      </cc:Work>
    </rdf:RDF>
  </metadata>
  <defs
     id="defs8">
    <pattern
       y="0"
       x="0"
       height="6"
       width="6"
       patternUnits="userSpaceOnUse"
       id="EMFhbasepattern" />
  </defs>
  <sodipodi:namedview
     pagecolor="#ffffff"
     bordercolor="#666666"
     borderopacity="1"
     objecttolerance="10"
     gridtolerance="10"
     guidetolerance="10"
     inkscape:pageopacity="0"
     inkscape:pageshadow="2"
     inkscape:window-width="1920"
     inkscape:window-height="986"
     id="namedview6"
     showgrid="false"
     inkscape:zoom="9.8333333"
     inkscape:cx="-1.9470319"
     inkscape:cy="13.506251"
     inkscape:window-x="-11"
     inkscape:window-y="-11"
     inkscape:window-maximized="1"
     inkscape:current-layer="svg4" />
  <path
     style="fill:#000000;stroke-width:0.13495761"
     d="m 78.318061,-35.129381 -0.661081,0.827132 c -0.636026,0.795664 -0.661345,0.860348 -0.661345,1.687496 v 0.859837 h -0.877226 -0.877223 v 1.214618 1.214617 h 0.877223 0.877226 v 6.927912 c 0,3.810313 0.04274,6.970381 0.09489,7.022537 0.05215,0.05222 0.613915,0.07763 1.248357,0.05648 l 1.153466,-0.0387 0.03478,-6.98406 0.03508,-6.984048 h 2.09052 2.090793 v 0.539824 0.539843 h -1.621337 -1.621604 l 0.03582,4.217421 0.0356,4.217429 h 7.220231 7.220242 l 0.0355,-4.212669 0.03552,-4.212697 -1.385162,-0.03852 -1.385168,-0.03835 v -0.472351 -0.472339 l 2.35384,-0.0369 2.35386,-0.03723 0.716444,-0.540876 c 0.394039,-0.297501 0.716423,-0.585234 0.716423,-0.639468 0,-0.05436 -0.329584,-0.355817 -0.732237,-0.670308 l -0.731997,-0.571993 h -8.714902 -8.71479 v -0.851918 c 0,-0.801331 -0.03677,-0.90139 -0.620752,-1.687234 z m 6.505117,5.8037 h 3.238984 3.238988 v 0.539842 0.539816 h -3.238988 -3.238984 v -0.539816 z"
     id="path893-1"
     inkscape:connector-curvature="0" />
  <path
     style="stroke-width:1.20217133"
     d="m 116.94911,1.3402732 c -4.00722,3.6065149 -8.01443,7.2130234 -12.02165,10.8195438 1.20216,0 2.40433,0 3.60649,0 0,2.208687 0,4.417385 0,6.626078 1.3915,-1.18949 2.78299,-2.378979 4.17449,-3.568469 1.28571,1.493115 2.57143,2.986219 3.85715,4.479335 0.94595,-0.805577 2.56838,-1.820503 3.09515,-2.496354 -0.87432,-0.191055 -2.58427,0.383261 -2.06862,-1.080891 0.18184,-0.875145 -0.23325,-2.433407 0.33329,-2.868311 2.47962,0.254306 4.95924,0.508624 7.43886,0.762925 0,-0.618103 0,-1.236211 0,-1.854313 1.2022,0 2.40438,0 3.60657,0 C 124.9636,8.5533028 120.95635,4.9467881 116.94911,1.3402732 Z m 2.2352,13.2678988 c 0.0719,0.282441 -0.32324,0.940219 0.0952,0.94405 1.39832,0.162411 2.80377,0.276285 4.19442,0.495271 -2.33132,1.915354 -4.71062,3.771962 -7.06761,5.655758 -1.12902,-1.404332 -2.25806,-2.808645 -3.38712,-4.212941 -2.20286,1.814539 -4.40571,3.62908 -6.60856,5.443625 0.43909,0.968456 1.04131,0.460208 1.64651,-0.180701 1.60589,-1.325075 3.21028,-2.651967 4.81533,-3.978057 1.11665,1.394857 2.21435,2.805268 3.35395,4.181467 2.61816,-2.026374 5.19644,-4.10408 7.79552,-6.154955 -0.16896,1.456288 -0.33797,2.912573 -0.50702,4.368848 0.33628,-0.04295 1.01085,0.342963 0.92998,-0.22861 0.24256,-1.874261 0.46675,-3.750883 0.66526,-5.630342 -1.9729,-0.254701 -3.94749,-0.495254 -5.9259,-0.703413 z"
     id="path1282"
     inkscape:connector-curvature="0" />
  <path
     style="stroke-width:1.01233304;fill:#dddddd;fill-opacity:1"
     d="M 12.195326,1.2326748 C 8.8209051,4.2697062 5.446485,7.3067437 2.0720651,10.343778 c 1.0123229,0 2.0246557,0 3.0369792,0 0,2.089395 0,4.178796 0,6.268197 1.4546419,-1.175507 2.9092976,-2.350997 4.36394,-3.526499 1.1709097,1.31728 2.3418307,2.63456 3.5127437,3.951839 1.053816,-0.819663 2.107625,-1.639322 3.161442,-2.458985 -0.468358,-0.614723 -0.936706,-1.229435 -1.405062,-1.844163 1.51322,-0.140756 3.026448,-0.281523 4.539668,-0.422279 0,-0.656037 0,-1.312079 0,-1.96811 1.012323,0 2.024656,0 3.03698,0 -3.37448,-3.0370343 -6.748953,-6.0740718 -10.12343,-9.1111032 z m 8.867619,11.7774142 c -1.662204,0.125786 -3.329528,0.20114 -4.98607,0.388661 0.301249,0.755384 1.960522,1.479367 0.705742,2.103987 -1.183488,1.0046 -2.340143,2.047498 -3.57211,2.991142 -0.91603,-0.42868 -1.466833,-1.49845 -2.215999,-2.1949 C 10.3896,15.81087 9.6995835,14.219469 8.9165703,15.3183 6.8634167,17.000964 4.8010305,18.674921 2.797265,20.415924 c 0.4288541,0.610133 1.0801609,1.959469 1.8095178,0.896618 1.6233762,-1.25474 3.1610163,-2.620546 4.8135604,-3.836133 1.2047668,1.23328 2.3181428,2.554216 3.4512808,3.853531 1.940483,-1.619985 3.831718,-3.303321 5.831996,-4.848369 0.537752,0.463943 0.979828,1.027505 1.464155,1.545653 0.29839,-1.672378 0.59678,-3.344757 0.89517,-5.017135 z"
     id="path873-5"
     inkscape:connector-curvature="0" />
</svg>
