<?xml version="1.0" encoding="UTF-8" standalone="no"?>
<!-- Created with Inkscape (http://www.inkscape.org/) -->

<svg
   xmlns:dc="http://purl.org/dc/elements/1.1/"
   xmlns:cc="http://creativecommons.org/ns#"
   xmlns:rdf="http://www.w3.org/1999/02/22-rdf-syntax-ns#"
   xmlns:svg="http://www.w3.org/2000/svg"
   xmlns="http://www.w3.org/2000/svg"
   xmlns:sodipodi="http://sodipodi.sourceforge.net/DTD/sodipodi-0.dtd"
   xmlns:inkscape="http://www.inkscape.org/namespaces/inkscape"
   width="393.35382mm"
   height="39.10387mm"
   viewBox="0 0 393.35382 39.10387"
   version="1.1"
   id="svg839"
   inkscape:version="0.92.2 (5c3e80d, 2017-08-06)"
   sodipodi:docname="inspectify_wordmark.svg">
  <defs
     id="defs833" />
  <sodipodi:namedview
     id="base"
     pagecolor="#ffffff"
     bordercolor="#666666"
     borderopacity="1.0"
     inkscape:pageopacity="0.0"
     inkscape:pageshadow="2"
     inkscape:zoom="0.35"
     inkscape:cx="732.53969"
     inkscape:cy="83.794361"
     inkscape:document-units="mm"
     inkscape:current-layer="layer1"
     showgrid="false"
     fit-margin-top="0"
     fit-margin-left="0"
     fit-margin-right="0"
     fit-margin-bottom="0"
     inkscape:window-width="1920"
     inkscape:window-height="986"
     inkscape:window-x="-11"
     inkscape:window-y="-11"
     inkscape:window-maximized="1" />
  <metadata
     id="metadata836">
    <rdf:RDF>
      <cc:Work
         rdf:about="">
        <dc:format>image/svg+xml</dc:format>
        <dc:type
           rdf:resource="http://purl.org/dc/dcmitype/StillImage" />
        <dc:title></dc:title>
      </cc:Work>
    </rdf:RDF>
  </metadata>
  <g
     inkscape:label="Layer 1"
     inkscape:groupmode="layer"
     id="layer1"
     transform="translate(306.70339,-129.73502)">
    <g
       aria-label="INSPECTIFY"
       style="font-style:normal;font-variant:normal;font-weight:normal;font-stretch:normal;font-size:57.5056839px;line-height:1.25;font-family:'Crimson Text';-inkscape-font-specification:'Crimson Text';letter-spacing:0px;word-spacing:0px;fill:#ffffff;fill-opacity:1;stroke:none;stroke-width:0.89852631"
       id="text4532">
      <path
         d="m -306.70339,130.42509 h 4.77297 v 37.72373 h -4.77297 z"
         style="font-style:normal;font-variant:normal;font-weight:normal;font-stretch:normal;font-family:'Source Sans Pro';-inkscape-font-specification:'Source Sans Pro';letter-spacing:13.22916698px;fill:#ffffff;stroke-width:0.89852631"
         id="path1532"
         inkscape:connector-curvature="0" />
      <path
         d="m -278.3116,130.42509 h 4.94549 l 13.62885,23.69234 4.0829,7.82078 h 0.23003 q -0.17252,-2.87529 -0.40254,-5.92309 -0.17252,-3.10531 -0.17252,-6.0956 v -19.49443 h 4.54295 v 37.72373 h -4.94549 l -13.68635,-23.74985 -4.08291,-7.76327 h -0.23002 q 0.23002,2.87529 0.40254,5.86558 0.23002,2.93279 0.23002,5.92309 v 19.72445 h -4.54295 z"
         style="font-style:normal;font-variant:normal;font-weight:normal;font-stretch:normal;font-family:'Source Sans Pro';-inkscape-font-specification:'Source Sans Pro';letter-spacing:13.22916698px;fill:#ffffff;stroke-width:0.89852631"
         id="path1534"
         inkscape:connector-curvature="0" />
      <path
         d="m -217.43987,168.83889 q -3.96789,0 -7.36072,-1.49515 -3.39284,-1.49515 -5.86558,-4.0829 l 2.87528,-3.33533 q 2.0127,2.12771 4.71547,3.45034 2.76027,1.26512 5.69306,1.26512 3.73787,0 5.80807,-1.66766 2.07021,-1.72517 2.07021,-4.48545 0,-1.43764 -0.51755,-2.41523 -0.46005,-1.03511 -1.32263,-1.72518 -0.80508,-0.74757 -1.9552,-1.32263 -1.15011,-0.57505 -2.47274,-1.20762 l -5.40554,-2.35773 q -1.32263,-0.57506 -2.70276,-1.38013 -1.38014,-0.80508 -2.47275,-1.9552 -1.09261,-1.15011 -1.78267,-2.70277 -0.69007,-1.61015 -0.69007,-3.68036 0,-2.12771 0.86258,-3.96789 0.92009,-1.84018 2.47275,-3.16281 1.61016,-1.38014 3.73787,-2.12771 2.18521,-0.74758 4.77297,-0.74758 3.39283,0 6.26812,1.32263 2.87528,1.26513 4.88798,3.33533 l -2.58775,3.10531 q -1.72518,-1.66767 -3.85289,-2.58776 -2.0702,-0.97759 -4.71546,-0.97759 -3.16281,0 -5.11801,1.49514 -1.89769,1.43765 -1.89769,4.0254 0,1.38014 0.51756,2.35774 0.57505,0.92009 1.49514,1.66766 0.92009,0.69007 2.0127,1.26513 1.09261,0.51755 2.24272,0.97759 l 5.34803,2.30023 q 1.61016,0.69007 3.0478,1.61016 1.43765,0.86258 2.47275,2.0702 1.0351,1.15012 1.61016,2.76028 0.63256,1.55265 0.63256,3.62285 0,2.24273 -0.92009,4.19792 -0.86259,1.95519 -2.53025,3.45034 -1.66767,1.43764 -4.0254,2.30023 -2.35773,0.80508 -5.34803,0.80508 z"
         style="font-style:normal;font-variant:normal;font-weight:normal;font-stretch:normal;font-family:'Source Sans Pro';-inkscape-font-specification:'Source Sans Pro';letter-spacing:13.22916698px;fill:#ffffff;stroke-width:0.89852631"
         id="path1536"
         inkscape:connector-curvature="0" />
      <path
         d="m -184.01453,130.42509 h 10.75356 q 3.16282,0 5.75057,0.57506 2.64526,0.57505 4.48545,1.89768 1.84018,1.26513 2.87528,3.39284 1.0351,2.12771 1.0351,5.23302 0,2.99029 -1.0351,5.17551 -0.9776,2.18521 -2.81778,3.62286 -1.84018,1.43764 -4.42794,2.18521 -2.53025,0.69007 -5.63555,0.69007 h -6.21062 v 14.95148 h -4.77297 z m 10.40853,18.86186 q 4.94549,0 7.30322,-1.84018 2.41524,-1.89768 2.41524,-5.92308 0,-4.08291 -2.53025,-5.63556 -2.47274,-1.61016 -7.41823,-1.61016 h -5.40554 v 15.00898 z"
         style="font-style:normal;font-variant:normal;font-weight:normal;font-stretch:normal;font-family:'Source Sans Pro';-inkscape-font-specification:'Source Sans Pro';letter-spacing:13.22916698px;fill:#ffffff;stroke-width:0.89852631"
         id="path1538"
         inkscape:connector-curvature="0" />
      <path
         d="m -138.21379,130.42509 h 21.73715 v 4.0254 h -16.96417 v 11.84617 h 14.31891 v 4.0829 h -14.31891 v 13.68636 h 17.53923 v 4.0829 h -22.31221 z"
         style="font-style:normal;font-variant:normal;font-weight:normal;font-stretch:normal;font-family:'Source Sans Pro';-inkscape-font-specification:'Source Sans Pro';letter-spacing:13.22916698px;fill:#ffffff;stroke-width:0.89852631"
         id="path1540"
         inkscape:connector-curvature="0" />
      <path
         d="m -80.397948,168.83889 q -3.565353,0 -6.555648,-1.32263 -2.990296,-1.32263 -5.233017,-3.79538 -2.185216,-2.53025 -3.450341,-6.15311 -1.20762,-3.68036 -1.20762,-8.28082 0,-4.54294 1.265125,-8.1658 1.265125,-3.62286 3.507847,-6.15311 2.242722,-2.53025 5.290523,-3.85288 3.047801,-1.38014 6.670659,-1.38014 3.450341,0 6.038097,1.43764 2.645261,1.38014 4.312926,3.22032 l -2.587755,3.10531 q -1.495148,-1.61016 -3.392836,-2.58776 -1.897687,-0.97759 -4.312926,-0.97759 -2.702767,0 -4.887983,1.09261 -2.185216,1.0351 -3.73787,3.0478 -1.552653,1.95519 -2.415238,4.77297 -0.80508,2.81778 -0.80508,6.32562 0,3.56536 0.80508,6.44064 0.862585,2.81778 2.357733,4.83048 1.495147,2.0127 3.622858,3.1053 2.185216,1.09261 4.887983,1.09261 2.760273,0 4.830477,-1.09261 2.070205,-1.15011 3.910387,-3.16281 l 2.645261,2.9903 q -2.242721,2.58775 -5.0605,4.0254 -2.817778,1.43764 -6.498142,1.43764 z"
         style="font-style:normal;font-variant:normal;font-weight:normal;font-stretch:normal;font-family:'Source Sans Pro';-inkscape-font-specification:'Source Sans Pro';letter-spacing:13.22916698px;fill:#ffffff;stroke-width:0.89852631"
         id="path1542"
         inkscape:connector-curvature="0" />
      <path
         d="m -41.824058,134.45049 h -11.386126 v -4.0254 h 27.602728 v 4.0254 h -11.386125 v 33.69833 h -4.830477 z"
         style="font-style:normal;font-variant:normal;font-weight:normal;font-stretch:normal;font-family:'Source Sans Pro';-inkscape-font-specification:'Source Sans Pro';letter-spacing:13.22916698px;fill:#ffffff;stroke-width:0.89852631"
         id="path1544"
         inkscape:connector-curvature="0" />
      <path
         d="m -5.6411388,130.42509 h 4.77297172 v 37.72373 H -5.6411388 Z"
         style="font-style:normal;font-variant:normal;font-weight:normal;font-stretch:normal;font-family:'Source Sans Pro';-inkscape-font-specification:'Source Sans Pro';letter-spacing:13.22916698px;fill:#ffffff;stroke-width:0.89852631"
         id="path1546"
         inkscape:connector-curvature="0" />
      <path
         d="m 22.750676,130.42509 h 21.737149 v 4.0254 H 27.523648 v 12.76626 h 14.376421 v 4.0254 H 27.523648 v 16.90667 h -4.772972 z"
         style="font-style:normal;font-variant:normal;font-weight:normal;font-stretch:normal;font-family:'Source Sans Pro';-inkscape-font-specification:'Source Sans Pro';letter-spacing:13.22916698px;fill:#ffffff;stroke-width:0.89852631"
         id="path1548"
         inkscape:connector-curvature="0" />
      <path
         d="m 70.491329,153.54238 -11.32862,-23.11729 h 5.118006 l 4.887983,10.63855 q 0.920091,2.07021 1.782676,4.08291 0.862586,2.01269 1.840182,4.1404 h 0.230023 q 0.977597,-2.12771 1.955193,-4.1404 0.977597,-2.0127 1.840182,-4.08291 l 4.830478,-10.63855 h 5.002994 l -11.32862,23.11729 v 14.60644 h -4.830477 z"
         style="font-style:normal;font-variant:normal;font-weight:normal;font-stretch:normal;font-family:'Source Sans Pro';-inkscape-font-specification:'Source Sans Pro';letter-spacing:13.22916698px;fill:#ffffff;stroke-width:0.89852631"
         id="path1550"
         inkscape:connector-curvature="0" />
    </g>
  </g>
</svg>
