<?xml version="1.0" encoding="UTF-8" standalone="no"?>
<!-- Created with Inkscape (http://www.inkscape.org/) -->

<svg
   xmlns:dc="http://purl.org/dc/elements/1.1/"
   xmlns:cc="http://creativecommons.org/ns#"
   xmlns:rdf="http://www.w3.org/1999/02/22-rdf-syntax-ns#"
   xmlns:svg="http://www.w3.org/2000/svg"
   xmlns="http://www.w3.org/2000/svg"
   xmlns:sodipodi="http://sodipodi.sourceforge.net/DTD/sodipodi-0.dtd"
   xmlns:inkscape="http://www.inkscape.org/namespaces/inkscape"
   width="120.33324mm"
   height="73.556801mm"
   viewBox="0 0 120.33324 73.556801"
   version="1.1"
   id="svg1039"
   inkscape:version="0.92.2 (5c3e80d, 2017-08-06)"
   sodipodi:docname="wordmark.svg"
   inkscape:export-filename="C:\Users\Chinedu Odu\Documents\Imagefactor\Projects\work.inspectify.ng\Graphics\wordmark.png"
   inkscape:export-xdpi="72.170082"
   inkscape:export-ydpi="72.170082">
  <defs
     id="defs1033" />
  <sodipodi:namedview
     id="base"
     pagecolor="#ffffff"
     bordercolor="#666666"
     borderopacity="1.0"
     inkscape:pageopacity="0.0"
     inkscape:pageshadow="2"
     inkscape:zoom="0.35"
     inkscape:cx="-334.02716"
     inkscape:cy="150.43354"
     inkscape:document-units="mm"
     inkscape:current-layer="layer1"
     showgrid="false"
     fit-margin-top="0"
     fit-margin-left="0"
     fit-margin-right="0"
     fit-margin-bottom="0"
     inkscape:window-width="1920"
     inkscape:window-height="986"
     inkscape:window-x="-11"
     inkscape:window-y="-11"
     inkscape:window-maximized="1" />
  <metadata
     id="metadata1036">
    <rdf:RDF>
      <cc:Work
         rdf:about="">
        <dc:format>image/svg+xml</dc:format>
        <dc:type
           rdf:resource="http://purl.org/dc/dcmitype/StillImage" />
        <dc:title></dc:title>
      </cc:Work>
    </rdf:RDF>
  </metadata>
  <g
     inkscape:label="Layer 1"
     inkscape:groupmode="layer"
     id="layer1"
     transform="translate(-47.178615,-115.07874)">
    <path
       inkscape:connector-curvature="0"
       style="fill:#ffffff;stroke-width:0.26458338"
       d="m 51.940914,115.0788 c -1.35982,-0.008 -1.68087,0.77076 -1.72495,4.18579 -0.022,1.69757 -0.23161,5.11072 -0.46614,7.58457 -0.70691,7.45702 -0.64595,11.86223 0.17674,12.77131 0.24853,0.27461 0.45218,0.64701 0.45218,0.82785 0,0.22985 0.12094,0.20823 0.40203,-0.0729 0.22117,-0.22116 0.39455,-0.73591 0.38656,-1.1436 -0.0307,-1.47148 0.30324,-5.04473 0.79838,-8.54623 0.27781,-1.96453 0.64352,-4.58391 0.81288,-5.82083 0.16936,-1.23696 0.51093,-3.46567 0.75911,-4.95268 0.38862,-2.32879 0.4013,-2.82311 0.0899,-3.56362 -0.42632,-1.01389 -0.75885,-1.26469 -1.68672,-1.26969 z m 96.481976,20.8008 c -0.1877,0 -0.36752,0.0297 -0.53278,0.0925 -1.38178,0.52536 -2.504,3.40678 -3.0422,7.8104 -0.45998,3.76356 -0.47761,3.82034 -1.27744,4.16097 -2.15889,0.91937 -2.24804,2.44544 -0.21911,3.74499 l 0.76533,0.4899 -0.18604,5.60999 -0.18655,5.60999 0.61133,0.29456 c 1.08873,0.52403 1.72751,0.39706 1.92288,-0.38137 0.17777,-0.70829 0.64471,-8.07797 0.66301,-10.46449 l 0.0104,-1.25417 1.7756,-0.80513 c 2.31525,-1.04979 2.59344,-1.44558 1.66812,-2.37091 -0.42544,-0.42539 -0.74396,-0.49429 -1.68466,-0.36536 -0.72536,0.0994 -1.22783,0.0495 -1.34048,-0.13279 -0.2266,-0.36666 0.5485,-5.01926 1.12965,-6.78048 0.39449,-1.19555 0.52476,-1.33501 1.37097,-1.47018 1.23224,-0.19688 1.57872,-0.4354 1.57872,-1.08625 0,-1.28807 -1.71282,-2.70481 -3.02669,-2.70216 z m -20.69797,1.94977 c -1.30624,0 -1.54627,0.70223 -1.17719,3.44474 0.31259,2.32275 -0.0463,8.2984 -0.53433,8.89662 -0.13598,0.16669 -0.67762,0.38354 -1.20303,0.48212 -1.25541,0.23553 -2.20038,0.87506 -2.20038,1.48828 0,0.77134 1.16047,1.3878 2.23346,1.1865 l 0.91312,-0.17156 -0.14521,3.64784 -0.1447,3.64734 0.80357,0.8578 c 1.23995,1.32342 1.63008,0.97039 1.63608,-1.48156 0.005,-1.99578 0.59047,-6.91126 0.8785,-7.37732 0.0816,-0.13198 0.62867,-0.39892 1.21594,-0.59272 2.28919,-0.75552 2.49079,-2.32688 0.27957,-2.17972 l -1.11879,0.0744 0.17932,-1.52961 c 0.0988,-0.84132 0.3532,-2.72023 0.56534,-4.17544 0.62913,-4.31575 -0.038,-6.21771 -2.18127,-6.21771 z m -78.139926,2.64583 c -0.14553,-2e-5 -0.26459,0.27602 -0.26459,0.61392 0,0.33787 -0.19463,1.18477 -0.43201,1.88153 -0.28085,0.82425 -0.33748,1.32585 -0.16277,1.43608 0.29242,0.18454 0.2263,2.20871 -0.0889,2.7187 -0.10732,0.17364 -0.22066,0.6237 -0.25167,0.99994 -0.031,0.37626 -0.13412,1.63668 -0.22892,2.80088 -0.0948,1.16414 -0.22865,2.59289 -0.29766,3.175 -0.26029,2.19503 -0.66016,9.37053 -0.67696,12.1548 -0.0164,2.72721 0.0185,2.9215 0.59791,3.36724 1.02925,0.79182 1.1503,0.68189 1.55389,-1.41285 0.28173,-1.46203 1.21598,-14.11023 1.45265,-19.66544 0.0744,-1.74628 0.18486,-4.0294 0.24545,-5.0736 0.0887,-1.52728 0.0259,-1.96713 -0.32091,-2.24896 -0.37113,-0.30168 -0.40757,-0.2875 -0.26096,0.10385 0.0936,0.25 0.0651,0.51996 -0.0636,0.59947 -0.22717,0.14038 -0.69453,-0.85299 -0.5891,-1.25212 0.0288,-0.10914 -0.0663,-0.19844 -0.21187,-0.19844 z m 89.067946,1.93011 c -0.31855,-0.0201 -0.54181,0.0964 -0.92449,0.38084 -1.00506,0.74695 -1.07198,1.95856 -0.14831,2.68513 1.33385,1.04918 3.2861,0.48292 3.2861,-0.95345 0,-1.00762 -0.44909,-1.59436 -1.48208,-1.93527 -0.3145,-0.1038 -0.54009,-0.16513 -0.73122,-0.17725 z m 27.31512,4.7625 c -0.65444,0.0236 -1.29957,0.43413 -1.45572,1.21492 -0.21596,1.07976 -1.344,2.35778 -3.622,4.10257 -2.14269,1.64119 -3.16067,2.06214 -4.12378,1.70585 -0.60615,-0.22423 -0.6242,-0.30723 -0.47181,-2.12495 0.1782,-2.12561 -0.23485,-3.23731 -1.30225,-3.5052 -1.80717,-0.45357 -2.7041,1.2088 -2.23241,4.13774 0.29148,1.80996 0.80371,2.68486 2.08049,3.55431 1.93554,1.31802 3.91611,1.0233 6.51743,-0.97049 0.94274,-0.72255 1.83719,-1.31361 1.98799,-1.31361 0.3573,0 0.34715,0.44659 -0.10594,4.73665 -0.38031,3.60093 -0.66375,7.25207 -1.23351,15.87448 -0.36538,5.52939 -0.13106,12.55225 0.44906,13.45398 0.44115,0.68569 1.80482,0.82259 2.14458,0.21547 0.1168,-0.20872 0.14859,-1.31005 0.0708,-2.44739 -0.26756,-3.91044 -0.10523,-11.00479 0.42272,-18.47173 0.19646,-2.77857 1.65611,-13.9192 2.13527,-16.29722 0.23079,-1.14557 0.34331,-2.38622 0.25011,-2.75743 -0.19279,-0.76817 -0.85658,-1.13163 -1.51102,-1.10795 z m -82.764978,2.41173 c -0.435743,0 -1.089634,0.0925 -2.252054,0.27956 -5.058225,0.81397 -6.564339,2.2003 -4.742339,4.36563 0.976709,1.16075 2.321533,1.7726 5.031211,2.28875 1.289156,0.24556 2.463112,0.55539 2.608633,0.68887 0.409654,0.37576 -1.047142,1.48497 -2.396226,1.82467 -1.277752,0.32176 -1.486958,0.7792 -0.630978,1.37874 1.237694,0.86691 4.336097,-0.15065 5.726271,-1.8805 2.000726,-2.48965 1.167871,-3.27535 -4.551151,-4.29381 -2.240491,-0.39899 -3.654134,-0.94229 -3.517609,-1.35184 0.188754,-0.56629 3.68853,-1.76577 4.740275,-1.62473 0.794332,0.10655 1.028462,0.0291 1.26918,-0.42063 0.249714,-0.46662 0.196691,-0.61608 -0.342635,-0.96946 -0.289666,-0.18976 -0.50681,-0.28443 -0.942578,-0.28525 z m 14.059111,0.0315 c -0.377851,0.003 -0.805973,0.0437 -1.307412,0.11473 -2.129181,0.30154 -3.62667,1.25039 -4.518078,2.86289 -0.599625,1.08464 -0.604202,1.1502 -0.21291,2.89851 0.220186,0.98388 0.720222,4.11076 1.111038,6.94844 0.587058,4.25934 0.687547,5.79337 0.579808,8.7948 -0.135493,3.77494 -0.08308,3.99799 0.98806,4.22455 0.581369,0.12298 1.177819,-0.0156 1.212321,-0.28165 0.01217,-0.0936 0.06662,-0.46768 0.120941,-0.83145 0.510646,-3.41897 0.379439,-9.50839 -0.303345,-14.07668 -0.138112,-0.92395 -0.0926,-1.00227 0.794782,-1.37303 1.44063,-0.60195 3.022521,-2.40885 4.251934,-4.85656 0.858228,-1.70881 0.845558,-2.44642 -0.05736,-3.30779 -0.845635,-0.80677 -1.526302,-1.12694 -2.659777,-1.11676 z m -33.351471,0.25117 c -0.650478,0.0464 -1.125648,0.6231 -1.498598,1.77456 -0.25046,0.77319 -1.04603,2.79506 -1.76787,4.49276 -1.44862,3.40696 -1.4438,3.99272 0.0351,4.31755 1.18851,0.26104 1.70148,-0.18291 2.921796,-2.52852 1.083204,-2.08203 2.551324,-3.85834 3.693319,-4.4695 0.471567,-0.25236 0.584306,-0.20738 0.776182,0.31057 0.123454,0.3333 0.307604,1.261 0.409284,2.0614 0.40005,3.1492 1.414541,5.71661 2.810668,7.11274 1.386364,1.38636 3.247338,0.90791 1.967839,-0.50591 -0.700696,-0.77431 -1.435709,-3.31849 -1.85002,-6.40377 -0.525806,-3.9157 -0.565758,-4.06635 -1.239202,-4.69376 -0.636455,-0.59296 -2.32627,-0.72533 -3.510889,-0.27493 -0.541866,0.20603 -0.72136,0.17579 -0.843359,-0.1421 -0.08522,-0.22202 -0.491014,-0.57772 -0.901753,-0.79013 -0.374968,-0.19391 -0.706861,-0.28207 -1.002533,-0.26096 z m 41.846028,0.70435 c -0.48996,-0.009 -0.96266,0.10684 -1.35237,0.37981 -0.32776,0.22958 -1.13292,1.23235 -1.78903,2.22829 -0.97004,1.47241 -1.16001,1.95051 -1.01648,2.55903 0.34431,1.4596 1.20989,2.51269 2.59673,3.15846 2.00755,0.93477 4.52764,0.73954 5.58882,-0.43304 0.71729,-0.79262 0.16764,-1.14999 -1.88153,-1.22267 -1.72363,-0.0611 -2.49082,-0.37629 -2.49082,-1.02269 0,-0.18468 0.2707,-0.4036 0.60204,-0.48678 0.90649,-0.22752 2.83755,-1.99001 2.83755,-2.59004 0,-1.39475 -1.62499,-2.54373 -3.09491,-2.57037 z m 31.85129,0.75758 c -0.85013,-0.0352 -1.60014,0.6458 -1.39681,1.66243 0.0862,0.43093 0.15709,1.46074 0.15709,2.28822 0,1.1289 0.12949,1.64346 0.51883,2.06137 1.22564,1.31556 2.39159,-0.25738 2.39159,-3.22667 0,-1.37552 -0.10802,-1.83608 -0.52917,-2.25721 -0.34788,-0.34791 -0.7551,-0.51213 -1.14153,-0.52814 z m -21.56354,0.0274 c -0.5033,0.0148 -1.08233,0.21741 -1.74563,0.60719 -1.29021,0.75819 -2.11124,1.80695 -2.54403,3.25149 -0.3864,1.28972 -0.0967,1.98128 1.14825,2.7404 1.88612,1.15004 8.38398,0.12957 8.38398,-1.31673 0,-0.68259 -0.96019,-0.86677 -3.5326,-0.67849 -2.54937,0.18658 -3.0526,-0.0212 -2.67219,-1.10279 0.22711,-0.64577 0.61322,-0.93718 2.22002,-1.67327 0.60846,-0.27874 0.61968,-0.7234 0.0326,-1.31054 -0.35951,-0.35949 -0.78706,-0.53218 -1.29036,-0.51726 z"
       id="path974" />
  </g>
</svg>
